<svg xmlns="http://www.w3.org/2000/svg" viewBox="0 0 236 48" width="236" height="48" role="img" aria-label="SalaryPadi">
  <defs>
    <linearGradient id="sp-lockup" x1="0" y1="0" x2="1" y2="1">
      <stop offset="0" stop-color="#146b55"/>
      <stop offset="1" stop-color="#102f28"/>
    </linearGradient>
  </defs>
  <path d="M24 0 A24 24 0 0 1 48 24 A24 24 0 0 1 24 48 H5 A5 5 0 0 1 0 43 V24 A24 24 0 0 1 24 0 Z" fill="url(#sp-lockup)"/>

    <g stroke="#ffffff" stroke-width="3.6" stroke-linecap="round" stroke-linejoin="round" fill="none">
      <path d="M18 33.5 V14.5 L30 33.5 V14.5" />
      <path d="M14.5 20.75 H33.5" />
      <path d="M14.5 27.25 H33.5" />
    </g>
  <path d="M38.5 4.6 C39.35 7.6 40.4 8.65 43.4 9.5 C40.4 10.35 39.35 11.4 38.5 14.4 C37.65 11.4 36.6 10.35 33.6 9.5 C36.6 8.65 37.65 7.6 38.5 4.6 Z" fill="#eec75f"/>
  <text x="58" y="33.5" font-family="'Segoe UI', 'Inter', 'Helvetica Neue', Arial, sans-serif" font-size="26" font-weight="700" letter-spacing="-0.5" fill="#fffaf2">Salary<tspan fill="#eec75f">Padi</tspan></text>
</svg>
